<svg xmlns="http://www.w3.org/2000/svg" width="1280" height="338"><path fill="#FEFEFE" d="m190 130.813 3.095.211c5.18.437 8.54 1.013 12.905 3.976 3.176.93 6.339 1.718 9.56 2.46 3.843.943 6.384 2.07 9.44 4.54 2.176.84 2.176.84 4.438 1.438 3.937 1.228 6.42 2.845 9.562 5.562l2.75 1.375c5.395 2.698 10.865 5.548 14.25 10.625l1.813.875c4.79 2.464 7.883 6.995 11.187 11.125l2.75 2.688C274 178 274 178 274 180l1.75.125c3.4 1.322 4.371 3.822 6.25 6.875l2.188 2.625C286 192 286 192 286.5 194.125c.333 2.058.333 2.058 2.375 3.188 2.988 2.372 3.714 5.19 5.125 8.687l1.5 1.875c1.963 2.781 2.72 5.653 3.656 8.906.74 2.285.74 2.285 2.344 4.106 1.938 2.73 2.354 5.151 3 8.425.787 3.728 1.538 6.771 3.125 10.25 3.733 9.333 2.561 20.896 2.56 30.857.003 2.341.02 4.682.04 7.022.003 1.515.005 3.03.005 4.543l.022 2.081c-.028 6.107-.88 12.394-4.252 17.623-2.022 3.131-2.022 3.131-3.063 6.062-1.017 2.441-2.08 3.406-3.937 5.25-1.54 2.06-3.02 4.154-4.5 6.258C293 321 293 321 290 322l-.938 1.898c-1.303 2.58-2.575 3.31-5.062 4.727-2.358 1.36-4.06 2.436-6 4.375-2.164.633-2.164.633-4.625 1.125l-2.477.508L269 335v3h-51v-3l-2.965-.297c-12.014-1.37-12.014-1.37-16.41-3.703-14.362-7.168-35.892-4.747-51.375-3.25l-2.164.187c-4.647.528-7.995 1.926-12.09 4.136-3.295 1.53-6.386 1.79-9.996 2.177l-2.059.234c-1.645.186-3.293.353-4.941.516v3H64l-1-3c-2.035-.914-2.035-.914-4.438-1.5-4.343-1.171-4.343-1.171-6.562-4.5l-2.813-1.375c-3.502-1.786-5.523-3.756-8.187-6.625l-2.563-2.375c-1.984-2.137-3.184-3.756-4.562-6.25-1.577-3.238-1.577-3.238-3.398-4.816-1.78-1.88-2.26-3.397-2.977-5.872-.792-2.7-1.589-4.837-3.028-7.276-1.859-4.307-1.905-7.796-1.87-12.43l-.01-2.6c-.001-1.81.004-3.62.017-5.43.016-2.745 0-5.489-.02-8.234.003-1.766.007-3.533.013-5.299l-.019-2.454c.061-5.044.907-9.206 2.671-13.936 1.48-4.022 2.398-8.22 3.207-12.423l.477-2.417.402-2.208c.66-1.98.66-1.98 2.137-3.394 2.637-2.746 2.814-6.456 3.582-10.09C36 211 36 211 38.063 209.871L40 209c.387-2.325.718-4.66 1-7 1.438-2.438 1.438-2.438 3-4h2l.813-3.375C48 191 48 191 51 189c.93-1.662 1.86-3.326 2.77-5 3.477-5.652 8.502-10.397 13.23-15l2.25-2.375C82.476 154 82.476 154 89 154l.75-1.867c1.488-2.54 2.588-3.093 5.25-4.258 2.567-1.142 3.982-1.857 6-3.875 2.473-.823 4.97-1.463 7.492-2.121 2.545-.745 2.545-.745 4.461-2.383 2.573-1.88 4.816-2.332 7.922-2.996 3.296-.708 5.894-1.371 8.848-3.02 4.557-2.058 8.888-2.309 13.84-2.667l3.08-.24c14.518-1.04 28.845-.834 43.357.24ZM161 191c-2.162 3.243-2.265 4.275-2.344 8.035l-.09 2.951-.132 6.164-.09 2.948-.057 2.703C158 216 158 216 156 218c-2.167.255-2.167.255-4.832.273l-2.92.063c-2.029.026-4.057.044-6.086.055-5.951.116-5.951.116-11.299 2.53-2.427 2.66-2.427 2.66-2.863 6.079 1.075 3.234 1.075 3.234 3 6 2.933 1.073 5.812 1.158 8.914 1.246l2.805.1c1.945.061 3.89.118 5.836.172l2.797.103 2.557.076C156 235 156 235 158 237c.287 2.29.287 2.29.344 5.121l.09 3.084.066 3.232c.043 2.104.095 4.206.156 6.31l.057 2.833c.132 2.679.132 2.679 2.287 5.42 2.75.917 4.36 1.109 7.188 1.063L172 264c2.078-4.254 2.182-7.677 2.063-12.375-.118-4.997-.14-9.725.937-14.625 3.164-2.11 4.103-2.27 7.746-2.379l2.787-.103 2.905-.08c1.894-.06 3.789-.124 5.683-.192l2.545-.072c2.224-.166 4.194-.562 6.334-1.174.197-1.415.382-2.832.563-4.25l.316-2.39c.121-2.365-.183-4.111-.879-6.36-3.005-.86-5.758-1.157-8.879-1.246l-2.79-.1c-1.933-.061-3.865-.118-5.798-.172l-2.787-.103-2.541-.076C178 218 178 218 175 216c-.4-2.06-.4-2.06-.441-4.578l-.08-2.77-.042-2.902c-.11-8.558-.11-8.558-2.437-16.75-4.81-1.23-7.047-1.075-11 2ZM103 0h36l1 3 2.75 1.375C148.546 7.273 151.53 11.68 155 17l1.543 1.387c1.84 2.038 2.14 3.621 2.644 6.3.16.809.318 1.617.481 2.45L160 29h2c4.134 6.615 3.183 15.861 3.188 23.375l.037 2.96c.016 8.142.025 16.11-5.225 22.665-.832 2.042-1.49 4.094-2.156 6.195C157 86 157 86 154 88l-1.313 2.25c-2.677 4.363-5.763 8.109-10.687 9.75l-1.836 1.957c-2.557 2.414-4.392 2.938-7.789 3.73-3.793.869-3.793.869-7.375 2.313-7.467.356-7.467.356-11-2-2.819-.762-5.652-1.395-8.504-2.023C103 103 103 103 101.852 100.96L101 99l-3.063-1L95 97c-.875-2.125-.875-2.125-1-4l-1.813-.125C88.885 91.554 88.457 89.157 87 86l-2-2.313c-2.71-3.642-3.698-7.384-5-11.687l-.746-1.912c-2.32-6.163-2.678-11.665-2.567-18.213l-.01-2.879C76.776 36.225 76.776 36.225 81 32c.79-2.737 1.402-5.494 2.023-8.273C84.143 20.6 85.564 19.206 88 17l1.438-2.438c2.568-4.212 5.699-6.998 9.812-9.687C102.26 3.229 102.26 3.229 103 0ZM194 0h36l1 3 3 1.438C237 6 237 6 237.875 8.188L238 10l1.875.125L242 11c.68 1.996 1.346 3.996 2 6l1.965.914C248 19 248 19 248.94 21.06l.621 2.378c.921 3.472 1.855 5.103 4.438 7.563 3.11 9.33 2.194 21.01 1.75 30.75l-.08 2.235c-.273 4.698-1.366 7.944-3.67 12.015a427.282 427.282 0 0 0-2.84 7.047c-1.404 2.364-2.713 2.825-5.16 3.953l-.313 2.188c-1.07 4.378-4.248 7.019-7.687 9.812l-3 1-1.344 1.465c-2.22 2.058-4.227 2.408-7.156 3.097-3.47.826-5.49 1.432-8.5 3.438-1.938.266-1.938.266-4 .25l-2.063.016C208 108 208 108 205 106c-2.819-.762-5.652-1.395-8.504-2.023C194 103 194 103 192.852 100.96L192 99l-3.063-1L186 97a70.134 70.134 0 0 1-1-4l-2.375-.875c-3.61-1.547-4.053-3.624-5.625-7.125l-1.523-1.414c-1.847-1.983-2.048-3.373-2.477-6.023-.699-3.63-1.576-5.717-4-8.563-1.764-5.348-1.267-11.187-1.313-16.75l-.087-3.5c-.046-6.183.244-10.745 3.427-16.109 1.29-2.175 1.867-4.384 2.473-6.828 1.15-4.09 2.601-6.642 5.5-9.813l1.563-2.75C182 11 182 11 185 10l1.375-2.438C188.312 4.508 189.7 4.216 193 3l1-3ZM572.172 107.621c9.317-.478 9.317-.478 13.418 1.848 4.782 4.488 6.896 9.252 8.41 15.531 1.214 4.216 1.214 4.216 3.504 7.863 1.704 2.435 2.029 4.09 2.433 7.012.796 4.554 2.279 7.384 5.063 11.125.716 1.646 1.403 3.307 2 5 .182-.71.364-1.42.55-2.152l.763-2.786.738-2.777L610 146l3-1 .332-2.738.48-3.575.458-3.55c.787-3.382 1.39-3.833 3.73-6.137a119.786 119.786 0 0 0 1.625-6.75c1.678-6.07 3.352-9.684 8.672-13.172 6.359-2.536 12.955-2.026 19.328.172 2.488 1.833 3.803 3.097 5.375 5.75.401 3.18.401 3.18.436 6.984l.03 2.106c.029 2.292.035 4.583.038 6.875l.03 4.79c.018 3.344.024 6.689.022 10.034 0 4.282.04 8.563.092 12.845.034 3.297.04 6.593.038 9.89.004 1.579.017 3.157.04 4.736.03 2.21.02 4.416.003 6.626l.013 3.806c-1.045 4.658-2.828 5.67-6.742 8.308-4.635 1.545-8.793 2.02-13.266-.047-5.412-3.31-5.412-3.31-6.734-5.953a86.8 86.8 0 0 1-.027-4.938l.037-2.96c.035-2.068.074-4.136.117-6.204l.033-2.96.051-2.723c.006-2.422.006-2.422-2.211-4.215l-.55 3.578-.763 4.672-.357 2.355c-.709 4.254-1.359 7.112-4.33 10.395l-1.5 3.063c-1.381 2.704-2.171 4.09-4.5 5.937-3.671 1.014-7.204 1.256-11 1-2.94-1.688-4.029-2.485-6-5l-1.398-1.625c-3.972-5.326-4.548-10.907-5.243-17.398-.18-2.9-.18-2.9-1.359-4.977h-4l.438 2.563c2.705 16.532 2.705 16.532-.125 21.25-3.773 3.568-5.977 5.06-11.25 5.562-4.724-.196-8.356-1.629-11.705-5.055-1.853-3.166-1.753-5.537-1.778-9.196l-.026-2.072a620.134 620.134 0 0 1-.023-6.763l-.023-4.715c-.013-3.294-.015-6.587-.009-9.88.006-4.213-.025-8.424-.065-12.637-.026-3.246-.029-6.492-.025-9.739a447.956 447.956 0 0 0-.03-4.657 356.51 356.51 0 0 1 .006-6.526l-.006-3.745c.826-4.508 2.421-6.157 5.621-9.39 2.4-1.066 4.542-1.065 7.172-1.379ZM296.375 41.75l2.273-.016c2.74.31 4.828 1.168 7.352 2.266l2.43.86c8.546 3.112 14.172 7.892 19.57 15.14a155.158 155.158 0 0 1 2 5l1.453 1.14c2.405 2.891 2.61 6.31 3.172 9.922.692 5.117.692 5.117 2.375 9.938.504 5.754-.316 10.48-2 16-.454 3.073-.87 6.146-1.242 9.23-.907 3.314-2.262 4.479-4.758 6.77-1.116 1.934-1.116 1.934-1.938 3.938-3.118 6.515-7.822 9.845-14.062 13.062l-3.063 1.625c-5.46 2.556-9.854 3.909-15.937 3.375a77.564 77.564 0 0 1-7-3l-2.266-.914c-4.913-2.001-8.183-4.013-11.734-8.086l-1.75-1.563C270 125 270 125 269.562 122.938L269 121l-1.938-.82C265 119 265 119 264.06 116.793l-.622-2.606c-.792-3.023-1.434-5.181-3.062-7.874-4.66-7.838-2.943-20.638-1.008-29.208.807-2.684 2.096-4.77 3.633-7.105.502-1.325.979-2.66 1.438-4 2.109-5.826 6.043-9.838 10.562-14h2l.691-1.867c1.712-2.79 3.192-3.19 6.247-4.258 11.59-4.13 11.59-4.13 12.437-4.125ZM53.063 47.563C55 49 55 49 56 52l2.438.938C61.57 54.236 61.635 55.013 63 58l2.438 2.313C68.358 63.376 69.484 66.072 71 70l1.561 2.79c1.632 3.642 1.826 6.171 1.837 10.147l.012 3.961-.019 2.042c-.016 2.055 0 4.107.02 6.162l-.013 3.96-.01 3.598c-.431 3.712-1.553 6.11-3.388 9.34l-1.281 2.738-1.219 2.575-1.219 2.613C66 122 66 122 63 123l-.938 2.5L61 128a70.134 70.134 0 0 1-4 1l-.895 1.898c-1.316 2.503-2.254 3.012-4.792 4.165l-2.168.988L47 137l-3.5 1.75c-5.466 1.952-9.479 1.985-14.938 0L25 137l-2.262-.914c-4.87-1.98-8.366-3.896-11.738-8.086l-1.063-2.688c-.699-2.477-.699-2.477-2.937-3.25-2.982-1.584-3.008-3.955-4-7.062l-3-1V67l3-1 1.438-3.5C6 59 6 59 8.188 58.062L10 58l.375-1.875C11 54 11 54 13 52h3l.73-1.867C18.298 47.5 19.5 47 22.312 45.875l2.454-.992L27 44l2.563-1.25c8.717-2.682 15.807.888 23.5 4.813ZM818.813 107.688l3.707-.114c4.067.498 5.569 1.624 8.48 4.426l2.125 1.938c2.012 2.213 3.386 4.473 4.875 7.062l1.625 1.938C841 125 841 125 841.438 128.125L842 131a356.52 356.52 0 0 0 4 2c3.896 4.702 6.06 10.28 8 16h1l.044-3.042c.058-3.737.136-7.473.218-11.21.034-1.615.062-3.23.084-4.844.034-2.327.086-4.652.142-6.978l.02-2.176c.128-4.4.819-7.23 3.492-10.75 4.396-3.073 9.869-2.654 15-2 2.688 1.875 2.688 1.875 4 4v2l4 2c.116 8.893.205 17.785.26 26.679.025 4.13.06 8.259.117 12.388.055 3.988.084 7.975.097 11.963.01 1.52.028 3.038.055 4.557.036 2.133.04 4.264.039 6.398l.033 3.674c-.883 4.908-3.422 7.688-7.413 10.716-5.541 1.583-10.996.985-16.188-1.375-2.063-1.75-2.063-1.75-4-4l-2.688-2.938c-2.296-3.041-2.615-4.479-3.312-8.062l-1.898-.895c-2.575-1.354-3.032-2.409-4.164-5.042-1.304-2.994-2.641-4.773-4.938-7.063l-1.375-3.438c-1.746-3.827-3.315-5.109-6.625-7.562l.219 2.14c.644 7.12.942 14.214 1.031 21.36l.064 2.606c.027 4.822-.19 7.98-3.314 11.894l-1.418 1.793c-3.081 2.35-6.897 1.553-10.582 1.207-3.375-.625-3.375-.625-6-2-2.723-4.408-3.378-7.765-3.388-12.904l-.016-2.008a608.77 608.77 0 0 1 .006-6.522 1646.605 1646.605 0 0 1 .007-14.115c.017-4.065.007-8.131-.01-12.198-.012-3.14-.008-6.281 0-9.422.002-1.499 0-2.997-.008-4.496-.008-2.1.004-4.2.02-6.302l.008-3.612c.456-4.095 1.505-6.762 3.381-10.421 2.922-1.461 5.559-1.248 8.813-1.313ZM1158.25 107.625l2.777-.074c6.365-.027 10.542 1.216 15.973 4.449l3.188 1.438c3.21 1.783 5.326 3.875 7.812 6.562l1.563 1.438c4.102 4.46 6.321 8.421 6.437 14.562-1.504 2.149-2.671 2.836-5 4a151.26 151.26 0 0 1-8.313.375l-2.302.113c-4.31.068-5.847-.03-9.256-2.93L1169 135c-5.325-2.542-11.318-2.972-17.027-1.465-3.697 1.43-6.07 2.977-7.973 6.465-1.117 3.46-1.166 6.754-1.188 10.375l-.042 3.336c.337 4.822 1.104 8.193 4.605 11.601 5.98 3.845 13.519 3.367 20.344 2.239A174.84 174.84 0 0 0 1174 166v-2l-3.5-.438c-1.092-.14-1.092-.14-2.207-.285-1.474-.178-2.95-.334-4.43-.46-4.344-.406-7.366-1.168-10.863-3.817-1.723-3.445-1.37-7.226-1-11 1.188-2.5 1.188-2.5 3-4 6.156-1.62 12.56-1.184 18.875-1.188l3.8-.037c12.355-.02 12.355-.02 17.325 2.225 2.74 4.283 2.331 8.58 2.313 13.5l.048 2.59c.005 6.229.005 6.229-1.756 9.504C1194 172 1194 172 1192 172l-.188 2.188c-1.09 3.771-2.889 5.207-5.812 7.812l-1.57 1.543c-3.822 3.6-7.26 5.415-12.317 6.816-2.142.579-2.142.579-4.09 1.672-7.465 3.574-15.703 1.688-23.187-.73-5.322-1.884-9.962-4.09-13.836-8.301l-1.875-1.875L1127 179l-2.563-2.063c-3.019-3.638-3.744-6.858-4.761-11.414-.59-2.741-.59-2.741-2.676-5.523-.427-3.09-.324-6.197-.313-9.313l-.048-2.552c-.004-5.213.676-8.544 3.361-13.135.793-2.334 1.48-4.677 2.156-7.047C1123 126 1123 126 1126 124l1.438-2.563c1.846-2.88 2.417-2.727 5.562-3.437l.848-1.895c1.47-2.685 2.715-3.118 5.527-4.23 3.302-1.319 3.302-1.319 6.474-2.912 3.935-1.762 8.153-1.332 12.401-1.338ZM1091 112l3.5 1.375c7.688 3.57 11.319 10.593 15.5 17.625l2 3c1.354 5.23 1.184 10.446 1.188 15.813l.037 2.908c.011 5.764-.346 10.804-2.225 16.279l-3 2-1.25 3.25c-1.729 4.41-4.835 7.175-8.75 9.75h-2l-1 3c-9.93 5.355-19.819 8.12-31 6-3.188-1.375-3.188-1.375-6-3a180.134 180.134 0 0 0-6.266-2.156C1050 187 1050 187 1048 184l-2.563-1.438c-2.437-1.562-2.437-1.562-3.25-3.75L1042 177l-1.871-.238c-2.129-.762-2.129-.762-3.29-2.617l-.901-2.333c-1.05-2.645-2.045-4.986-3.54-7.421-1.995-4.84-1.796-9.274-1.71-14.453l-.01-2.971c.052-7.007 1.053-11.332 5.322-16.967l1.5-3.063c1.367-2.677 2.304-3.995 4.5-5.937l2.438-2.5c4.252-4.15 8.061-6.2 13.562-8.5l3-2c10.503-2.143 20.817-1.887 30 4Zm-32 23c-2.12 3.21-2.635 6.207-3 10l-.258 2.555c-.292 6.249.537 13.148 4.64 18.12 4.206 3.444 9.642 3.507 14.805 3.075 5.168-.615 5.168-.615 9.813-2.75 1.746-3.407 1.746-3.407 3-7l2-3c.356-3.099.356-3.099.313-6.5l.05-3.469c-.4-3.344-.865-3.963-3.363-6.031l-1-2.938c-3.08-4.716-7.708-5.654-13-7.062-4.978 0-9.852 2.425-14 5ZM531.125 110.438 533 112l3.438 1.438C543.03 116.329 547.32 120.883 551 127c.875 3.5.875 3.5 1 6l3 1c2.565 5.284 2.333 10.757 2.313 16.5l.048 2.8c.004 5.403-.499 8.974-3.361 13.7a427.486 427.486 0 0 0-2.84 7.145C550 176 550 176 547.934 176.609L546 177a312.212 312.212 0 0 0-2 5c-1.938 1.063-1.938 1.063-4 2l-1.316 1.957c-2.087 2.532-3.535 2.89-6.684 3.668-3.283.83-5.126 1.459-8 3.375-11.105 2.225-21.157-.692-31-6l-1-3-2.188-.75c-3.976-1.767-6.414-4.653-8.812-8.25-.346-1.33-.68-2.663-1-4l-2-1.938c-4.584-4.727-3.184-12.826-3.188-19l-.037-3.248c-.023-12.394-.023-12.394 3.752-16.459.73-.67.73-.67 1.473-1.355a62.277 62.277 0 0 0 1.563-3.688c3.731-7.778 11.586-12.428 19.437-15.312l3-2c8.213-2.003 19.839-2.492 27.125 2.438ZM503 135c-2.21 2.752-2.21 2.752-3 6l-1.75 3.375c-2.306 6.687-.644 11.326 2.25 17.5 1.63 2.802 2.725 4.679 5.547 6.305 6.451 1.67 13.741 1.118 19.89-1.368 4.068-3.574 5.723-8.507 6.266-13.785.138-6.154-.012-12.628-3.203-18.027-9.692-6.258-16.17-5.231-26 0ZM1256 110v2l3.813.875c3.04.698 4.494 1.33 7.187 3.125v2l1.75.688c3.725 2.173 5.77 5.07 7.313 9.062L1277 130l3 1v38l-3 1a225.652 225.652 0 0 0-2.125 5.152c-1.843 3.892-4.607 6.347-8.563 7.91-2.477.689-2.477.689-3.148 2.895-1.164 2.043-1.164 2.043-3.441 3.02l-2.66.648c-3.307.828-5.171 1.447-8.063 3.375-11.225 2.249-21.007-.819-31-6l-2-3-2.063-.938L1212 182l-1-4a178.795 178.795 0 0 0-4-2c-1.69-2.62-2-3.826-2-7l-3-1c-1.972-3.685-2.257-6.866-2.266-11l-.007-3.438.023-3.562-.023-3.563.007-3.437.007-3.125c.271-3.013.894-5.182 2.259-7.875l2-1 1-2.938c2.986-7.299 9.8-13.443 16.938-16.562l2.152-.781c2.19-.742 2.19-.742 4.91-2.719 9.09-2.33 18.419-1.64 27 2Zm-28 24c-3.944 5.434-5.828 12.186-5.438 18.898.643 3.087 1.902 5.653 3.465 8.375C1227 163 1227 163 1228 166c7.382 3.758 14.834 3.38 22.617 1.3 4.763-2.6 5.854-8.369 7.383-13.3 1.378-6.064-.732-11.776-3.164-17.344-3.15-4.558-7.564-5.671-12.836-6.656-5.003 0-9.679 1.566-14 4ZM432.313 107.625l2.802-.074c6.25-.027 9.71.96 14.885 4.449l3.438 1.25c7.842 3.853 12.074 9.968 15.562 17.75l2 2c-.125 3.5-.125 3.5-1 7-5.185 3.757-13.315 2.493-19.336 1.688-1.851-.438-1.851-.438-4.664-1.688l-.805-1.922c-2.244-3.902-6.53-4.41-10.648-5.558-4.773-.7-8.057-.098-12.422 1.894-2.416 1.803-3.061 2.759-3.813 5.649-.28 2.399-.28 2.399-.312 4.937l-.16 2.785c-.204 6.452-.199 12.5 4.223 17.59 4.7 2.6 9.054 3.154 14.343 2.184 5.173-1.509 7.862-3.631 11.594-7.559 5.297-2.898 9.108-3.561 15-3 4.023 1.564 5.591 2.387 8 6 .313 2.5.313 2.5 0 5-1.313 1.438-1.313 1.438-3 3l-1.375 2.813c-2.537 4.975-5.368 8.909-10.625 11.187l-1.238 1.387c-6.068 5.556-16.68 7.851-24.762 7.613-6.947-1.12-13.758-3.764-20-7l-2-3-2.563-1.438c-2.88-1.846-2.727-2.417-3.437-5.562l-1.895-.813c-2.825-1.593-3.174-3.103-4.23-6.125-1.098-3.08-2.042-5.312-3.875-8.062-2.32-9.048-2.208-20.387 2.5-28.625L396 131l.938-3.25L398 125c2.125-.875 2.125-.875 4-1l.313-1.813c.785-2.5 1.656-3.562 3.687-5.187h2l1-3c1.926-1.098 1.926-1.098 4.313-2.063 3.332-1.355 3.332-1.355 6.536-2.976 3.952-1.765 8.199-1.33 12.464-1.336ZM772.527 109.246c5.081 4.097 7.037 8.514 8.473 14.754 1.092 4.729 1.092 4.729 3.469 8.828 1.875 2.66 2.359 4.936 3.031 8.11.69 3.246 1.282 5.706 3.02 8.546 1.748 2.972 2.182 5.428 2.668 8.828l.48 3.239L794 164h2c2.904 8.539 2.904 8.539 4 12.875.95 2.97 1.575 4.251 4 6.125-1.75 6.75-1.75 6.75-4 9-6.26 1.841-11.932 1.845-17.813-.938-3.584-2.133-4.85-3.834-6.062-7.812l-.492-2.36L775 179c-2.855-.952-4.91-1.19-7.887-1.316l-2.842-.127-2.958-.12-2.995-.13c-2.439-.106-4.878-.208-7.318-.307l-.762 3.719c-1.265 5.002-3.495 7.5-7.457 10.761-4.956 2.708-10.355 2.95-15.781 1.52-3.06-3.014-3.918-4.457-4.563-8.75.204-4.347 2.084-7.24 4.325-10.875 1.722-3.304 2.252-6.55 2.781-10.21C730 161 730 161 732 158h2l.297-2.598c1.371-10.488 1.371-10.488 3.703-14.09 2.265-3.75 2.818-6.791 3.41-11.078.59-2.234.59-2.234 2.067-3.695 2.094-2.115 2.253-4.022 2.836-6.914 1.381-5.526 2.884-7.623 7.687-10.625 5.846-1.949 12.895-2.531 18.527.246ZM763 141l-.805 1.898-1.07 2.477-1.055 2.46C759 150 759 150 757 152c-.167 2.584-.167 2.584 0 5 2.666.987 3.901 1.028 6.688.25 2.637-1.085 2.637-1.085 3.312-4.25-.24-2.724-.24-2.724-.813-5.625-.17-.982-.342-1.965-.519-2.977L765 142l-2-1ZM673.457 107.832l2.242-.01c1.568-.005 3.136-.007 4.704-.007 2.39-.002 4.78-.02 7.17-.04 1.523-.003 3.047-.005 4.572-.005l2.156-.022c4.026.018 7.08.477 10.699 2.252l2.422 1.184 2.328 1.254 2.36 1.246C714 115 714 115 715 118l1.93.445c2.07.555 2.07.555 3.265 2.297l.93 2.133c1.165 2.61 2.27 4.718 3.875 7.125.907 7.802.574 13.597-4 20l-1.336 2.922C716.682 158.438 711.93 161.99 706 164c-7.258 1.205-14.661 1.141-22 1l.063 2.048c.084 3.067.136 6.134.187 9.202l.102 3.223.039 3.105.063 2.857c-.591 3.341-1.834 4.477-4.454 6.565-4.349 1.45-8.46 1.644-13 1-3.079-2.2-4.622-3.595-5.611-7.27-.443-3.106-.531-6.091-.55-9.23l-.03-3.924-.012-4.22-.009-2.163c-.015-3.776-.024-7.553-.028-11.329-.006-3.883-.03-7.767-.058-11.65a1573.93 1573.93 0 0 1-.026-9.006c-.003-1.43-.01-2.861-.024-4.292-.121-14.165-.121-14.165 3.348-20.916 3.02-1.51 6.145-1.163 9.457-1.168ZM684 130c-.099 2.165-.13 4.333-.125 6.5l-.008 3.594c-.2 2.799-.2 2.799 1.133 3.906 5.228.266 9.071-.028 14-2 .532-5.846.532-5.846-1.938-11-3.232-2.11-9.782-4.28-13.062-1ZM902.06 107.466c4.552 1.253 6.846 4.844 9.377 8.565 1.955 3.713 2.828 6.854 3.563 10.969 1.458 1.625 1.458 1.625 3 3 1.187 3.188 1.187 3.188 2 6h1l.55-1.863.762-2.45.739-2.425c1.005-2.396 2.14-3.454 3.949-5.262.452-2 .903-4.001 1.344-6.004 1.052-3.2 3.117-4.88 5.656-6.996l1.691-1.613c3.318-1.993 6.034-1.785 9.871-1.762l2.038-.035c2.847.017 4.913.093 7.334 1.668 2.075 3.39 1.757 6.93 1.066 10.742-1.042 1.934-2.247 3.496-3.637 5.195-2.46 3.257-3.807 7.056-5.363 10.805a793.768 793.768 0 0 1-2.125 4.875l-.945 2.18C943 145 943 145 941 148h-2l-.297 1.793-.453 2.395-.422 2.355C937 157 937 157 934.957 159.086c-3.029 4.51-2.516 9.038-2.52 14.352-.056 12.847-.056 12.847-3.437 17.562-2.97 2.16-5.816 2.38-9.438 2.5l-2.808.156c-3.197-.762-4.83-1.984-6.8-4.619-1.988-4.246-1.572-8.938-1.517-13.537.1-9.497.1-9.497-4.437-17.5l-.5-3.75-.5-3.25-1.938-.934C899 149 899 149 898.094 147.012l-.594-2.324c-1.182-4.049-2.826-6.41-5.5-9.688a513.748 513.748 0 0 1-2-7c-.98-1.02-1.979-2.021-3-3-2.127-4.813-2.424-8.828-2-14 3.225-5.206 11.667-4.227 17.06-3.534ZM746.375 245.75l3.46-.078c3.404.353 4.785.913 7.165 3.328v2l1.813.188c3.038 1.128 3.58 3.088 5.187 5.812h3l.805-1.68 1.07-2.195 1.055-2.18C771 249 771 249 773 247c2.438-.438 2.438-.438 5 0 2.816 3.7 3.375 6.48 3.406 11.07l.067 3.465.054 7.203.067 3.457.021 3.157c.436 3.002.996 3.857 3.385 5.648 2.474 1.237 4.18 1.133 6.938 1.125l2.652.008c2.555-.035 2.555-.035 5.41-1.133l.044-2.367c.075-3.566.172-7.13.269-10.695l.068-3.725c.19-6.438.471-11.534 3.619-17.213 5.86.195 5.86.195 8 1 3.717 4.524 4.58 8.107 4.46 13.813 0 .731 0 1.463-.002 2.218-.006 1.54-.022 3.079-.046 4.618a445.185 445.185 0 0 0-.04 7.03c-.01 1.503-.022 3.006-.036 4.509l-.007 2.102c-.082 4.25-.604 7.811-2.329 11.71-3.72 2.48-6.697 2.322-11 2l-2.313-.625L799 295l-3 2c-5.671.692-12.29 1.434-17.473-1.309-1.667-1.476-3.087-2.998-4.527-4.691l-2-1c-.564-2.314-1.026-4.654-1.438-7-1.078-5.877-2.496-11.391-4.562-17l-11 1c.839 2.248.839 2.248 3.375 2.875 3.002 1.287 3.758 2.528 5.625 5.125a69.604 69.604 0 0 0 4 2c.61 4.178.876 7.596-1.418 11.273-1.78 2.042-3.568 3.917-5.582 5.727l-1.703 1.703c-3.467 1.957-6.926 1.731-10.797 1.672l-2.3.035c-3.345-.017-5.778-.177-8.731-1.808C736 294 736 294 736 292l-2.938-.875C730 290 730 290 729 288c-.356-7.467-.356-7.467 2-11 2.875-.438 2.875-.438 6 0 2.125 1.875 2.125 1.875 4 4 3.434 2.25 6.97 2.535 11 3v-4l-2.117-.332-2.758-.48-2.742-.458C742 278 742 278 740 275c-2.257-1.107-4.554-1.958-6.906-2.84-2.59-1.435-3.154-2.375-4.094-5.16-.777-5.491-1.002-9.656 2.375-14.188C734 251 734 251 736 251l.875-1.938c2.158-3.956 5.35-3.256 9.5-3.312ZM745 260l-2 3c3.402 2.094 6.053 2.18 10 2v-4l-8-1Zm24 0-1 3h2l-1-3ZM1169.438 233.063c3.935 1.035 5.318 1.572 7.562 4.937.61 2.704.814 5.217 1 8 3 1.333 3 1.333 6 0a99.74 99.74 0 0 1 5.875-.25l3.117-.078c3.413.372 5.289 1.26 8.008 3.328v2l2.313.75c3.048 1.418 3.953 2.413 5.687 5.25.512 2.578.512 2.578.688 5.25l.199 2.703L1210 267h2l.044-2.706c.061-3.316.135-6.631.218-9.947.034-1.434.062-2.869.084-4.303.034-2.064.086-4.126.142-6.189l.08-3.76c.432-3.095.432-3.095 1.827-4.987 2.073-1.431 3.67-1.678 6.168-1.92l2.378-.27C1225 233 1225 233 1227 235c1.306 6.49 1.149 13.321 1.133 19.918l.003 2.732c0 1.888-.001 3.776-.006 5.664-.005 2.877 0 5.753.007 8.63 0 1.845-.002 3.69-.004 5.536l.006 2.58c-.047 11.998-.047 11.998-2.264 15.94-3.2 1.707-5.484.952-8.875 0-3.994-3.865-4.546-6.854-4.75-12.313l-.172-3.8L1212 277h-2l-.043 2.012c-.256 4.732-.408 7.284-3.395 11.113C1204 292 1204 292 1202 292l-.875 1.938C1200 296 1200 296 1198 297c-2.598.151-5.151.231-7.75.25l-2.133.063c-4.8.035-7.897-.811-12.117-3.313l-2-1-1.75 2.063c-2.25 1.937-2.25 1.937-4.375 1.812C1166 296 1166 296 1164 294c-1.491-5.806-1.18-11.901-1.203-17.855l-.017-3.45c-.01-2.4-.016-4.8-.02-7.2-.01-3.68-.041-7.36-.072-11.04-.007-2.333-.012-4.665-.016-6.998l-.038-3.343.01-3.095-.011-2.724c.367-2.295.367-2.295 1.674-4.113 1.693-1.182 1.693-1.182 5.13-1.12ZM1179 262c-2.586 4.337-3.627 7.987-3 13 .808 2.513 1.79 4.626 3 7 4.201 2.1 9.437 1.541 14 1 2.802-1.356 3.916-2.578 6-5 1.177-3.53 1.199-6.295 1-10l-2-3h-2l-.5-1.938c-1.458-2.475-1.458-2.475-5.188-2.937-4.18-.289-7.465.064-11.312 1.875ZM496 246c7.394.596 7.394.596 11 3 .7 2.663.777 5.24 1 8h2l1.313-2.438C513 252 513 252 515.563 251.438L518 251c1.225-1.95 1.225-1.95 2-4 2.987-1.494 6.039-1.225 9.313-1.25l3.988-.078c3.817.338 5.725.958 8.699 3.328v2l2.313.813c2.672 1.18 3.845 1.983 5.687 4.187 2.61 6.75 2.268 13.197 0 20l1 3c.452 7.12.452 7.12-1.188 10.313-2.112 1.966-4.298 3.277-6.812 4.687l-1.563 1.566c-3.833 2.255-7.637 1.868-12 1.809l-2.615.035-2.513-.012-2.288-.01c-2.545-.489-3.458-1.355-5.021-3.388v-2l-1.875-.375C513 291 513 291 511 289v-3l-1.938-.938C507 284 507 284 506 283c-.955-5.19-1.125-10.187-1.063-15.438l.014-2.216c.012-1.782.03-3.564.049-5.346-1.795.423-3.586.864-5.375 1.313l-3.023.738c-2.91.77-2.91.77-4.602 3.949-.335 2.532-.335 2.532-.344 5.367l-.09 3.184-.066 3.324a808.86 808.86 0 0 1-.156 6.492l-.057 2.91c-.427 4.048-1.397 6.833-4.287 9.723-5.692-.09-5.692-.09-8-1-3.398-4.273-3.439-8.382-3.398-13.625l-.01-2.499c-.001-1.738.004-3.476.017-5.214a599.2 599.2 0 0 0-.02-7.959c.003-1.693.007-3.385.013-5.078l-.019-2.393c.058-4.55.434-7.703 3.417-11.232 6.324-1.762 6.324-1.762 9.855-.156 1.645 1.094 1.645 1.094 4.145 3.156l.938-1.938C495 247 495 247 496 246Zm25 16 1 4c1.915.108 3.833.186 5.75.25l3.234.14c3.654-.473 4.738-1.582 7.016-4.39-6.142-2.89-10.744-2.383-17 0Zm1 16-1 4c6.259 2.012 9.756 2.116 16 0l3-2c-3.68-2.454-6.444-2.228-10.688-2.125l-2.126.027c-1.73.024-3.458.06-5.186.098ZM1097.438 233.125c3.519.864 5.062 1.338 7.562 3.875.438 2.771.438 2.771.355 6.094l-.052 3.62-.116 3.786c-.052 2.469-.1 4.937-.144 7.406l-.093 3.323c-.087 2.86-.087 2.86 1.05 5.771l2 1 .227-2.45c1.208-9.817 1.208-9.817 4.773-12.8 3-1.75 3-1.75 5-1.75l1-3c4.681-3.225 10.578-2.488 16-2 3.438 1.375 3.438 1.375 6 3a203.24 203.24 0 0 0 5 2l2-4c2.375.25 2.375.25 5 1 1.759 2.743 2.256 4.928 2.29 8.154l.04 2.448.006 2.617.02 2.712c.01 1.889.015 3.779.015 5.668.004 2.89.04 5.78.078 8.67.006 1.838.01 3.675.012 5.512l.043 2.617c-.045 6.02-.045 6.02-2.533 9.178L1151 297l-2.25-1c-3.341-1.215-5.705-1.44-9.023-.043-5.789 2.214-12.666 2.274-18.727 1.043-5.855-2.749-9.867-6.227-12.336-12.27-.755-2.918-1.315-5.738-1.664-8.73-2.281 3.422-2.15 4.406-1.938 8.375.076 4.406.017 7.216-3.062 10.625-2.435 1.786-3.598 2.02-6.625 1.875-2.375-.875-2.375-.875-3.506-2.583-1.04-2.745-1.13-4.904-1.144-7.84l-.029-3.366.003-3.621-.013-3.728c-.006-2.6-.006-5.2-.002-7.8.002-2.669-.002-5.336-.02-8.005a1705.76 1705.76 0 0 1-.027-11.53l-.028-3.627.019-3.357-.002-2.958c.374-2.46.374-2.46 1.682-4.306 1.692-1.154 1.692-1.154 5.13-1.029ZM1124 262l-1 3c-2.063 1.188-2.063 1.188-4 2-.616 5.632-.616 5.632 1.043 10.898 1.78 2.141 3.452 3.85 5.957 5.102 1.81.122 3.624.175 5.438.188l2.933.042c2.862-.039 2.862-.039 5.629-2.23 2.541-4.141 3.678-7.156 3-12-.894-3.054-1.93-5.56-4-8-5.535-1.633-9.69-1.167-15 1ZM1002.977 108.91c3.703 2.837 4.95 5.68 6.023 10.09.241 3.725.185 7.433.125 11.164l-.023 3.241c-.024 3.407-.062 6.813-.102 10.22-.053 4.492-.093 8.984-.125 13.477l-.05 3.128-.02 2.913-.032 2.556c.248 2.515.964 4.132 2.227 6.301l2.598-.105c6.604-.157 11.623-.234 17.402 3.105 2.37 2.37 2.345 3.063 2.438 6.313-.078 3.72-.314 4.525-2.688 7.625-6.495 4.871-12.482 4.401-20.34 4.378-2.205-.003-4.41.02-6.615.045-1.417.003-2.835.003-4.252.002l-3.874.01c-4.284-.435-6.874-1.37-10.669-3.373-2.468-3.702-2.253-5.559-2.259-9.978l-.01-2.14c-.01-2.334-.003-4.669.003-7.003a2825.12 2825.12 0 0 1 .005-15.074c.012-4.36.005-8.719-.007-13.078-.007-3.352-.005-6.703 0-10.055.002-1.607 0-3.214-.005-4.821-.005-2.248.003-4.496.014-6.743l.005-3.876c.24-3.046.535-4.742 2.254-7.232 5.254-2.811 12.458-3.631 17.977-1.09ZM853.723 247.34c2.18 1.469 4.254 2.982 6.277 4.66 4.139-1.938 4.139-1.938 7.832-4.582 2.83-1.852 4.746-1.818 8.106-1.793l3.09-.023c3.353.45 5.283 1.368 7.972 3.398v2l1.813.813c2.927 1.588 4.696 3.206 6.187 6.187.123 2.58.188 5.13.203 7.71l.017 2.318c.01 1.619.016 3.238.02 4.857.01 2.473.041 4.946.072 7.42.007 1.573.012 3.146.016 4.718l.038 2.239c-.019 4.199-.368 6.695-3.366 9.738-3.517-.32-5.534-.622-8.313-2.875-2.64-3.325-2.799-5.958-2.714-10.055l.037-2.91c.035-2.016.074-4.031.117-6.047l.033-2.918.051-2.655c-.235-2.833-1.039-4.965-2.211-7.54-4.394-.703-8.555-1.05-13-1l-.06 2.782c-.078 3.415-.165 6.829-.257 10.243a958.91 958.91 0 0 0-.105 4.429 934.17 934.17 0 0 1-.164 6.374l-.095 3.872c-.294 3.04-.594 4.814-2.319 7.3-3.12 1.213-4.905 1.02-8.188.313C852 295 852 295 850.85 293.339c-1.12-3.082-1.178-5.796-1.264-9.073l-.117-3.926-.094-4.09-.117-4.137c-.094-3.37-.18-6.742-.258-10.113a549.918 549.918 0 0 0-4.813-.563l-2.707-.316c-2.614-.278-2.614-.278-5.48.879-1.32 6.222-1.026 12.337-.873 18.656.062 4.853-.101 8.827-2.127 13.344-2.834 2.834-5.063 2.796-9 3-2.375-1.125-2.375-1.125-4-3-1.698-6.18-1.186-12.733-1.185-19.092-.002-2.269-.02-4.537-.04-6.806a3198.28 3198.28 0 0 1-.005-4.375l-.013-3.982c.313-4.822.734-9.236 4.243-12.745 3.152-.16 3.152-.16 6.938-.063 8.031.192 16.152-3.353 23.785.403ZM589 246c2.875 2.438 2.875 2.438 5 5 3.487 1.32 3.487 1.32 7 1 2.377-2.283 2.377-2.283 4-5 2.816-1.408 5.236-1.208 8.375-1.25l3.46-.078c3.404.353 4.785.913 7.165 3.328v2l2.313.625c3.552 1.817 4.106 3.781 5.687 7.375l1.563 1.797c1.935 2.967 1.81 5.054 1.8 8.578l-.002 3.734-.048 3.891.01 3.89c-.062 10.73-.062 10.73-2.323 14.11-2.059.934-2.059.934-4.438 1.438l-2.37.558C624 297 624 297 622.276 295.723c-2.628-3.545-2.463-7.098-2.593-11.36l-.127-3.935-.12-4.115-.13-4.15c-.107-3.388-.209-6.775-.307-10.163-6.53-.973-6.53-.973-13 0-1.031 3.093-1.154 5.341-1.21 8.586l-.087 3.32c-.052 2.305-.096 4.61-.133 6.914l-.093 3.328-.06 3.037c-.481 3.25-1.517 5.158-3.417 7.815-2.474 1.814-3.555 2.042-6.625 1.75C592 296 592 296 590 294a84.853 84.853 0 0 1-.414-7.195l-.059-2.144c-.06-2.262-.106-4.524-.152-6.786-.038-1.533-.077-3.065-.117-4.598-.096-3.759-.18-7.518-.258-11.277a530.708 530.708 0 0 0-4.29-.543l-2.412-.305c-3.217-.213-5.428.413-8.298 1.848-2.995 3.156-3.384 5.43-3.441 9.719l-.08 3.324-.042 3.457c-.034 2.26-.077 4.521-.128 6.781l-.038 3.033c-.277 2.747-.757 4.392-2.271 6.686-2.313 1-2.313 1-5 1-3.994-2.415-5.693-4.572-7-9-.008-2.63.078-5.084.313-7.688l.146-2.048c.39-4.962.39-4.962 1.541-7.264.503-6.498.503-6.498-1.25-12.625-.923-2.922-.478-3.842.688-6.625 1.838-3.296 2.285-3.656 6.062-4.938 3.678.198 4.94.628 7.5 3.188l2.094-1.965c4.888-3.423 10.159-2.926 15.906-2.035ZM710 246c3.125 2.375 3.125 2.375 5 5l2.188.938c2.756 1.616 2.83 4.116 3.812 7.062 2 1.209 2 1.209 4 2 1.227 3.681 1.184 7.104 1.188 10.938l.037 2.17c.01 3.788-.059 6.71-2.225 9.892l-3 3-.875 2c-1.516 2.695-3.459 3.504-6.125 5l-1.164 1.57c-2.94 2.29-6.21 1.822-9.774 1.743l-2.17.01c-3.772-.04-6.693-.227-9.892-2.323l-.113 3.578c-.066 1.557-.132 3.115-.2 4.672l-.068 2.355c-.16 3.39-.348 5.853-1.88 8.915-2.204 1.876-3.37 1.99-6.239 1.918l-2.344-.004c-2.734-.55-3.48-1.215-5.156-3.434-.381-2.643-.381-2.643-.388-5.86l-.029-3.652.019-3.949a1305.627 1305.627 0 0 1 .007-12.553c.017-3.624.007-7.247-.01-10.87-.012-2.792-.008-5.584 0-8.375.003-1.984-.007-3.967-.016-5.951l.029-3.67.007-3.223c.432-3.283 1.503-5.202 3.381-7.897 5.38.34 9.533.686 14 4l.875-1.938c2.94-5.388 11.868-3.624 17.125-3.062Zm-19 16c-1.167 3.501-1.133 6.312-1.125 10l-.008 3.75c-.017 3.262-.017 3.262 1.133 6.25 7.026 1.813 13.22 1.468 20-1 .054-2.959.094-5.916.125-8.875l.05-2.55.02-2.442.032-2.254c-.06-2.124-.06-2.124-2.227-3.879a84.972 84.972 0 0 0-7.438-.188l-2.064.002c-3.094.028-5.543.201-8.498 1.186ZM1257.375 245.625l3.96-.148c4.52.645 5.763 2.114 8.665 5.523l2.688 1.563c2.592 1.611 3.057 2.747 4.312 5.437l3 1v26h-3l-.688 2.875C1275 291 1275 291 1272.626 292.125L1270 293l-1.602 2.031c-3.6 2.956-6.884 2.481-11.398 2.344l-2.445-.004c-5.314-.079-8.667-.54-12.618-4.371l-1.937-2-3-2c-1.098-2.242-1.098-2.242-2.063-4.875-1.365-3.681-1.365-3.681-3.039-7.227-1.433-3.028-1.192-5.609-.898-8.898a82.789 82.789 0 0 1 3-4c.442-1.472.856-2.952 1.25-4.438 1.353-4.383 3.131-6.182 7.031-8.492 1.794-1.022 1.794-1.022 3.25-2.64 3.255-3.168 7.563-2.696 11.844-2.805ZM1246 262l1 3c6.048.896 11.89 1.113 18 1l1-4c-7.188-2.805-12.851-2.334-20 0Zm1 15-1 5c3.547.803 6.864 1.162 10.5 1.188l2.781.042c2.915-.247 5.073-1.017 7.719-2.23l-1-3-19-1ZM941.063 245.625l3.097-.023c3.195.448 4.377 1.412 6.84 3.398 3.584.417 3.584.417 7 0l2-2c2.625-.125 2.625-.125 5 0 3.066 5.094 3.43 8.963 3.363 14.723l.002 2.494a630.379 630.379 0 0 1-.029 5.196 692.89 692.89 0 0 0-.014 7.933c-.005 1.688-.012 3.376-.021 5.064l.003 2.384c-.054 4.132-.265 7.557-2.304 11.206-2.375.938-2.375.938-5 1l-1.93-1.05c-2.98-1.367-5.1-.26-8.156.523-3.78.684-7.455.802-11.289.84l-2.128.052c-2.979-.002-4.997-.012-7.474-1.76C929 294 929 294 929 292l-2.188-.438c-3.74-2.078-4.805-4.626-6.699-8.37-1.158-2.387-1.158-2.387-3.113-5.192-1.11-8.536-.178-14.237 5-21l.988-2.086c1.588-3.004 4.154-4.177 7.012-5.914l2.32-1.598c3.142-1.644 5.215-1.804 8.742-1.777ZM933 263c-1.533 3.065-1.103 6.268-1.063 9.625l.014 2.14c.012 1.745.03 3.49.049 5.235 4.515 2.614 7.677 3.347 12.875 3.188l3.492-.083L951 283c1.763-3.805 2.271-6.816 2.25-11l.016-3.063c-.272-3.007-1.003-5.21-2.266-7.937-2.25-.054-4.5-.093-6.75-.125l-3.797-.07c-3.193.18-4.863.397-7.453 2.195ZM1047.117 246.676c1.633.824 1.633.824 3.883 2.324v2c1.94-.276 1.94-.276 4-1l2-3c2.438-.5 2.438-.5 5 0 3.664 4.392 3.423 8.664 3.363 14.098l.002 2.64a710.01 710.01 0 0 1-.029 5.51c-.023 2.808-.02 5.617-.014 8.426-.005 1.787-.012 3.574-.021 5.361l.003 2.541-.03 2.377-.013 2.081c-.313 2.358-1.006 3.951-2.261 5.966-2.313 1-2.313 1-5 1-2.813-1.938-2.813-1.938-5-4l-1.313 1.438c-4.192 3.882-11.08 3.321-16.511 3.156-5.585-.508-9.09-3.141-13.098-6.946-3.14-4-4.13-7.74-5.078-12.648l-1.375-2.5c-.925-3.7.312-6.471 1.54-10.016.956-2.635.956-2.635 1.46-6.109 2.309-5.667 7.184-9.365 12.297-12.586 4.841-1.838 11.287-1.68 16.195-.113ZM1033 262l-1 3-2.063 1.813c-2.132 2.068-2.132 2.068-2.624 4.937 1.067 5.045 3.4 8.356 7.687 11.25 4.113.832 7.893.883 12 0 2.17-1.673 2.871-2.453 3.5-5.125l.5-1.875 3-1c.504-5.033.504-5.033-1.875-9.25L1050 264l-2-3c-5.592-1.454-9.655-.843-15 1ZM449.938 245.813l3.714-.043c3.12.214 4.802.482 7.348 2.23l1 2 2.25 1.313c4.097 2.514 7.21 5.068 8.75 9.687.256 3.62.231 7.246.25 10.875l.063 3.012c.049 9.18.049 9.18-3.313 13.113-2.191 2.203-2.191 2.203-4.563 4.25l-2.378 2.078c-4.049 3.288-7.916 2.926-12.934 2.985l-2.473.087c-6.07.065-6.07.065-9.05-2.318L437 293l-2.75-1.625L432 290v-2l-1.875-.5c-2.731-1.928-3.16-3.818-3.813-7.023-.96-7.608-.978-15.24 1.688-22.477 2.947-3.584 6.055-5.654 10-8l2-3c3.474-1.158 6.278-1.168 9.938-1.188ZM442 262c-1.375 2.476-1.375 2.476-2 5l-2 1c-.567 5.554.393 8.304 3.613 12.617 2.513 2.506 5.45 2.587 8.825 2.695 3.303-.032 4.236-.063 6.937-2.125L459 279l1.75-1.25c2.104-2.945 1.806-6.265 1.25-9.75-1.292-1.793-1.292-1.793-3-3l-.688-2.125c-1.303-2.304-1.303-2.304-5-2.75-4.139-.302-7.472.185-11.312 1.875ZM1013.688 246.75c2.843 2.767 2.713 3.755 2.812 7.625-.191 4.249-.561 7.347-3.5 10.625h-2l-.148 2.266-.227 2.984c-.07.975-.14 1.95-.21 2.953-.404 2.723-.943 4.488-2.415 6.797l-2 1c-.727 2.182-.727 2.182-1.313 4.75-1.323 4.627-2.67 7.354-6.687 10.25-2.813 1.25-2.813 1.25-6 1-4.48-2.376-7.373-5.22-9.07-10.035a107.58 107.58 0 0 1-1.262-6.293c-.727-2.906-1.473-3.747-3.668-5.672-1.354-3.31-2.012-6.12-2.375-9.688L975 262l-2.063-1.375C971 259 971 259 970.668 256.93c-.075-4.24-.086-6.303 2.332-9.93 3.838-.507 6.243-.361 9.75 1.313 2.912 3.478 3.56 6.739 4.477 11.128.833 2.756 1.696 3.663 3.773 5.559 1.283 3.85 1.066 6.947 1 11 2.14-.804 2.14-.804 2.781-2.777l.719-2.16c.924-2.768 1.391-3.954 3.5-6.063.587-2.778.954-5.558 1.34-8.371.71-2.83 1.337-3.912 3.66-5.629h2l.813-1.938c1.834-3.187 3.461-3.264 6.875-2.312ZM402.875 234.688C405 236 405 236 406 238c.118 1.45.177 2.904.205 4.358l.06 2.73.051 2.951.063 3.018c.066 3.19.125 6.379.183 9.568l.131 6.477c.108 5.299.21 10.598.307 15.898l2.738-.105 3.575-.082 3.55-.106c3.137.293 3.137.293 4.969 1.59 1.915 2.793 2.587 5.39 3.168 8.703-1.141 2.187-1.141 2.187-3 4-3.718.841-7.51.602-11.313.563l-3.13.072c-8.495-.017-8.495-.017-12.225-3.045-2.923-3.246-3.454-4.696-3.57-8.929-.025-.898-.052-1.796-.08-2.721l-.069-2.952-.077-3.035c-.052-2.124-.102-4.248-.149-6.373-.074-3.237-.165-6.474-.256-9.71a6165.98 6165.98 0 0 1-.143-6.194l-.088-2.92c-.098-5.324.078-9.791 2.1-14.756 3.64-2.267 5.642-3.325 9.875-2.313ZM662.094 234.734l2.406.016 2.406-.016C669 235 669 235 671 237c1.007 2.975 1.131 5.747 1.145 8.873l.02 2.923.003 3.138.01 3.242c.005 2.262.007 4.524.007 6.786.002 3.459.02 6.917.04 10.376.003 2.198.005 4.397.005 6.596l.022 3.131-.01 2.933.005 2.567c-.31 3.06-1.01 6.198-3.247 8.435-2.215.203-2.215.203-4.938.25l-2.714.078L659 296c-3.906-5.859-3.159-13.646-3.168-20.504l-.01-2.673c-.005-1.853-.007-3.706-.007-5.56-.002-2.82-.02-5.642-.04-8.464-.003-1.81-.005-3.619-.005-5.428l-.022-2.532c.059-15.307.059-15.307 6.346-16.105ZM1076 247c3.929.268 5.549.524 8.313 3.438 2.735 4.153 2.861 7.15 2.89 12.019l.017 2.242c.01 1.568.016 3.136.02 4.704.01 2.39.04 4.78.072 7.17.007 1.523.012 3.047.016 4.572l.038 2.156c-.025 5.522-1.372 8.705-5.241 12.574-2.125 1.125-2.125 1.125-4.75 1C1075 296 1075 296 1073 293c-.26-1.884-.26-1.884-.275-4.025l-.029-2.438.003-2.623-.013-2.709c-.006-1.891-.006-3.782-.002-5.674.003-2.888-.02-5.776-.045-8.664-.003-1.838-.003-3.677-.002-5.515l-.028-2.611c.036-4.764.369-7.822 3.391-11.741ZM1076 229c3.96.088 5.734.792 8.875 3.25 2.125 2.75 2.125 2.75 2.75 5.375-.625 2.375-.625 2.375-2.688 4.188-3.633 1.468-6.055 1.762-9.937 1.187-2.063-2.063-2.063-2.063-3-5 .716-3.842 1.214-6.214 4-9Z"/></svg>